# This file uses centimeters as units for non-parametric coordinates.

v -0.308881 10.123623 -1.387066
v -0.266521 10.095816 -1.397082
v -0.288599 10.169043 -1.390382
v -0.343802 10.172642 -1.378151
v -0.231538 10.064579 -1.405563
v -0.229593 10.161699 -1.403543
v -0.228328 10.224885 -1.402230
v -0.304410 10.227944 -1.385421
v -0.367871 10.230193 -1.371408
v -0.195326 10.094716 -1.412768
v -0.170330 10.167215 -1.416438
v -0.151879 10.121198 -1.421656
v -0.115016 10.169107 -1.428556
v -0.088658 10.225880 -1.432922
v -0.152170 10.225593 -1.418962
v -0.153813 10.280293 -1.417222
v -0.227466 10.267925 -1.401336
v -0.092344 10.288629 -1.430531
v -0.111745 10.327189 -1.425293
v -0.158452 10.321558 -1.415163
v -0.227148 10.283821 -1.401006
v -0.300578 10.282560 -1.384888
v -0.361675 10.292789 -1.371194
v -0.294289 10.323657 -1.385236
v -0.340742 10.330728 -1.374842
v -0.287229 10.145868 -1.354204
v -0.256246 10.125530 -1.361530
v -0.312771 10.181724 -1.347683
v -0.230659 10.102684 -1.367733
v -0.330375 10.223816 -1.342751
v -0.204173 10.124726 -1.373002
v -0.172395 10.144094 -1.379503
v -0.145433 10.179138 -1.384550
v -0.126154 10.220661 -1.387744
v -0.128850 10.266559 -1.385995
v -0.143040 10.294762 -1.382164
v -0.177203 10.290644 -1.374755
v -0.227448 10.263041 -1.364400
v -0.325843 10.269602 -1.342595
v -0.276556 10.292179 -1.352865
v -0.310532 10.297350 -1.345263
v -0.271302 10.160391 -1.356304
v -0.248688 10.145546 -1.361651
v -0.289944 10.186561 -1.351545
v -0.230012 10.128871 -1.366178
v -0.302794 10.217284 -1.347945
v -0.210680 10.144958 -1.370025
v -0.187486 10.159096 -1.374770
v -0.167807 10.184673 -1.378453
v -0.153736 10.214981 -1.380785
v -0.155704 10.248480 -1.379508
v -0.166061 10.269065 -1.376712
v -0.190995 10.266059 -1.371304
v -0.227668 10.245913 -1.363746
v -0.299486 10.250702 -1.347831
v -0.263512 10.267179 -1.355327
v -0.288310 10.270954 -1.349778
v -0.274892 10.160803 -1.372629
v -0.252278 10.145958 -1.377977
v -0.264064 10.185050 -1.374400
v -0.293535 10.186973 -1.367870
v -0.233603 10.129283 -1.382504
v -0.232564 10.181130 -1.381426
v -0.231889 10.214861 -1.380725
v -0.272505 10.216495 -1.371751
v -0.306384 10.217697 -1.364270
v -0.214271 10.145370 -1.386350
v -0.200927 10.184075 -1.388310
v -0.191077 10.159508 -1.391095
v -0.171397 10.185085 -1.394779
v -0.157326 10.215394 -1.397110
v -0.191232 10.215240 -1.389657
v -0.192109 10.244442 -1.388729
v -0.231429 10.237838 -1.380247
v -0.159294 10.248892 -1.395833
v -0.169651 10.269477 -1.393037
v -0.194586 10.266471 -1.387629
v -0.231259 10.246325 -1.380071
v -0.270459 10.245652 -1.371467
v -0.303076 10.251113 -1.364156
v -0.267102 10.267591 -1.371652
v -0.291901 10.271365 -1.366104
vt 0.440313 0.446319
vt 0.470965 0.425922
vt 0.454377 0.480674
vt 0.414771 0.482738
vt 0.496365 0.402864
vt 0.496747 0.475843
vt 0.496995 0.523322
vt 0.442430 0.524736
vt 0.396919 0.525692
vt 0.522007 0.425922
vt 0.539167 0.480674
vt 0.552872 0.446319
vt 0.578795 0.482738
vt 0.597095 0.525692
vt 0.551575 0.524736
vt 0.549827 0.565810
vt 0.497164 0.555664
vt 0.593799 0.572786
vt 0.579491 0.601527
vt 0.546071 0.596755
vt 0.497226 0.567609
vt 0.444607 0.565810
vt 0.400708 0.572786
vt 0.448686 0.596755
vt 0.415317 0.601527
vt 0.399703 0.395337
vt 0.351859 0.463555
vt 0.426047 0.459689
vt 0.457120 0.357129
vt 0.505414 0.450639
vt 0.504699 0.313935
vt 0.403669 0.542228
vt 0.505879 0.539576
vt 0.318419 0.544013
vt 0.584875 0.459689
vt 0.552731 0.357129
vt 0.659104 0.463555
vt 0.610547 0.395337
vt 0.608117 0.542228
vt 0.693385 0.544013
vt 0.506195 0.600160
vt 0.604843 0.619163
vt 0.687210 0.632230
vt 0.597808 0.677129
vt 0.660409 0.686068
vt 0.506312 0.622534
vt 0.325516 0.632230
vt 0.407747 0.619163
vt 0.415388 0.677129
vt 0.352881 0.686068
vt 0.462739 0.395502
vt 0.420744 0.423446
vt 0.385750 0.473344
vt 0.497540 0.363909
vt 0.361291 0.532191
vt 0.532671 0.395502
vt 0.574959 0.423446
vt 0.610475 0.473344
vt 0.635548 0.532191
vt 0.631032 0.596717
vt 0.611429 0.636093
vt 0.565642 0.629556
vt 0.498720 0.589623
vt 0.366482 0.596717
vt 0.432216 0.629556
vt 0.386497 0.636093
vt 0.472284 0.423728
vt 0.441632 0.444126
vt 0.416090 0.480544
vt 0.497684 0.400670
vt 0.398239 0.523497
vt 0.523326 0.423728
vt 0.554191 0.444126
vt 0.580114 0.480544
vt 0.598415 0.523497
vt 0.595118 0.570593
vt 0.580810 0.599334
vt 0.547391 0.594562
vt 0.498546 0.565415
vt 0.402027 0.570593
vt 0.450005 0.594562
vt 0.416636 0.599334
vn 0.214730 -0.024595 0.976364
vn 0.214730 -0.024595 0.976364
vn 0.214730 -0.024595 0.976364
vn 0.214730 -0.024595 0.976364
vn 0.214721 -0.024598 0.976366
vn 0.214721 -0.024598 0.976366
vn 0.214721 -0.024598 0.976366
vn 0.214721 -0.024598 0.976366
vn 0.214729 -0.024598 0.976364
vn 0.214729 -0.024598 0.976364
vn 0.214729 -0.024598 0.976364
vn 0.214729 -0.024598 0.976364
vn 0.214718 -0.024593 0.976366
vn 0.214718 -0.024593 0.976366
vn 0.214718 -0.024593 0.976366
vn 0.214718 -0.024593 0.976366
vn 0.214731 -0.024594 0.976364
vn 0.214731 -0.024594 0.976364
vn 0.214731 -0.024594 0.976364
vn 0.214730 -0.024594 0.976364
vn 0.214739 -0.024597 0.976362
vn 0.214739 -0.024597 0.976362
vn 0.214739 -0.024597 0.976362
vn 0.214739 -0.024597 0.976362
vn 0.214729 -0.024596 0.976364
vn 0.214729 -0.024596 0.976364
vn 0.214729 -0.024596 0.976364
vn 0.214729 -0.024596 0.976364
vn 0.214733 -0.024596 0.976363
vn 0.214733 -0.024596 0.976363
vn 0.214733 -0.024596 0.976363
vn 0.214733 -0.024596 0.976363
vn 0.214722 -0.024585 0.976366
vn 0.214722 -0.024585 0.976366
vn 0.214723 -0.024585 0.976366
vn 0.214723 -0.024585 0.976366
vn 0.214729 -0.024588 0.976364
vn 0.214729 -0.024588 0.976364
vn 0.214729 -0.024588 0.976364
vn 0.214729 -0.024588 0.976364
vn 0.214739 -0.024593 0.976362
vn 0.214739 -0.024593 0.976362
vn 0.214739 -0.024593 0.976362
vn 0.214739 -0.024593 0.976362
vn 0.214741 -0.024596 0.976361
vn 0.214741 -0.024596 0.976361
vn 0.214741 -0.024596 0.976361
vn 0.214741 -0.024596 0.976361
vn 0.214726 -0.024591 0.976365
vn 0.214726 -0.024591 0.976365
vn 0.214726 -0.024591 0.976365
vn 0.214726 -0.024591 0.976365
vn 0.214721 -0.024585 0.976366
vn 0.214721 -0.024585 0.976366
vn 0.214721 -0.024585 0.976366
vn 0.214721 -0.024585 0.976366
vn 0.214729 -0.024601 0.976364
vn 0.214729 -0.024601 0.976364
vn 0.214729 -0.024601 0.976364
vn 0.214729 -0.024601 0.976364
vn 0.214730 -0.024598 0.976364
vn 0.214730 -0.024598 0.976364
vn 0.214729 -0.024598 0.976364
vn 0.214729 -0.024598 0.976364
vn -0.214721 0.024602 -0.976366
vn -0.214721 0.024602 -0.976366
vn -0.214721 0.024602 -0.976366
vn -0.214721 0.024602 -0.976366
vn -0.214724 0.024600 -0.976365
vn -0.214724 0.024600 -0.976365
vn -0.214724 0.024600 -0.976365
vn -0.214724 0.024600 -0.976365
vn -0.214726 0.024592 -0.976365
vn -0.214726 0.024592 -0.976365
vn -0.214726 0.024592 -0.976365
vn -0.214726 0.024592 -0.976365
vn -0.214723 0.024592 -0.976365
vn -0.214723 0.024592 -0.976365
vn -0.214723 0.024592 -0.976365
vn -0.214723 0.024592 -0.976365
vn -0.214734 0.024600 -0.976363
vn -0.214734 0.024600 -0.976363
vn -0.214734 0.024600 -0.976363
vn -0.214734 0.024600 -0.976363
vn -0.214731 0.024601 -0.976363
vn -0.214731 0.024601 -0.976363
vn -0.214731 0.024601 -0.976363
vn -0.214731 0.024601 -0.976363
vn -0.214729 0.024595 -0.976364
vn -0.214729 0.024595 -0.976364
vn -0.214729 0.024595 -0.976364
vn -0.214729 0.024595 -0.976364
vn -0.214731 0.024592 -0.976364
vn -0.214731 0.024592 -0.976364
vn -0.214731 0.024592 -0.976364
vn -0.214731 0.024592 -0.976364
vn -0.214730 0.024595 -0.976364
vn -0.214730 0.024595 -0.976364
vn -0.214730 0.024595 -0.976364
vn -0.214730 0.024595 -0.976364
vn -0.214730 0.024591 -0.976364
vn -0.214730 0.024591 -0.976364
vn -0.214730 0.024591 -0.976364
vn -0.214730 0.024591 -0.976364
vn -0.214731 0.024586 -0.976364
vn -0.214731 0.024586 -0.976364
vn -0.214731 0.024586 -0.976364
vn -0.214731 0.024586 -0.976364
vn -0.214720 0.024578 -0.976366
vn -0.214720 0.024578 -0.976366
vn -0.214720 0.024578 -0.976366
vn -0.214720 0.024578 -0.976366
vn -0.214724 0.024591 -0.976365
vn -0.214724 0.024591 -0.976365
vn -0.214724 0.024591 -0.976365
vn -0.214724 0.024591 -0.976365
vn -0.214724 0.024593 -0.976365
vn -0.214724 0.024593 -0.976365
vn -0.214724 0.024593 -0.976365
vn -0.214724 0.024593 -0.976365
vn -0.214724 0.024587 -0.976365
vn -0.214724 0.024587 -0.976365
vn -0.214724 0.024587 -0.976365
vn -0.214724 0.024587 -0.976365
vn -0.214727 0.024591 -0.976365
vn -0.214727 0.024591 -0.976364
vn -0.214727 0.024591 -0.976364
vn -0.214727 0.024591 -0.976364
vn -0.295948 -0.689100 0.661481
vn -0.295948 -0.689100 0.661481
vn -0.295948 -0.689100 0.661481
vn -0.295948 -0.689100 0.661481
vn -0.527467 -0.500603 0.686422
vn -0.527467 -0.500603 0.686422
vn -0.527467 -0.500603 0.686422
vn -0.527467 -0.500603 0.686422
vn -0.411197 -0.637427 0.651616
vn -0.411197 -0.637427 0.651616
vn -0.411197 -0.637427 0.651616
vn -0.411197 -0.637427 0.651616
vn -0.607086 -0.338152 0.719097
vn -0.607086 -0.338152 0.719097
vn -0.607086 -0.338152 0.719097
vn -0.607086 -0.338152 0.719097
vn 0.591132 -0.575100 0.565529
vn 0.591132 -0.575100 0.565529
vn 0.591132 -0.575100 0.565529
vn 0.591132 -0.575100 0.565529
vn 0.505102 -0.631127 0.588686
vn 0.505102 -0.631127 0.588686
vn 0.505102 -0.631127 0.588686
vn 0.505102 -0.631127 0.588686
vn 0.686067 -0.444961 0.575606
vn 0.686067 -0.444961 0.575606
vn 0.686066 -0.444961 0.575606
vn 0.686067 -0.444961 0.575606
vn 0.750208 -0.303116 0.587630
vn 0.750208 -0.303116 0.587630
vn 0.750208 -0.303116 0.587630
vn 0.750208 -0.303116 0.587630
vn 0.768158 0.020742 0.639924
vn 0.768158 0.020742 0.639924
vn 0.768158 0.020742 0.639924
vn 0.768158 0.020742 0.639924
vn 0.683912 0.251053 0.685009
vn 0.683912 0.251053 0.685009
vn 0.683912 0.251053 0.685009
vn 0.683912 0.251053 0.685009
vn 0.039590 0.784666 0.618654
vn 0.039590 0.784666 0.618654
vn 0.039590 0.784666 0.618654
vn 0.039590 0.784666 0.618654
vn -0.352945 0.814932 0.459691
vn -0.352945 0.814932 0.459691
vn -0.352945 0.814932 0.459691
vn -0.352945 0.814932 0.459691
vn -0.600150 0.056680 0.797877
vn -0.600150 0.056680 0.797877
vn -0.600150 0.056680 0.797877
vn -0.600150 0.056680 0.797877
vn 0.533962 0.733408 0.420710
vn 0.533962 0.733408 0.420710
vn 0.533962 0.733408 0.420710
vn 0.533962 0.733408 0.420710
vn 0.250030 0.759027 0.601135
vn 0.250030 0.759027 0.601135
vn 0.250030 0.759027 0.601135
vn 0.250030 0.759027 0.601135
vn -0.450282 0.328310 0.830336
vn -0.450282 0.328310 0.830336
vn -0.450282 0.328310 0.830336
vn -0.450282 0.328310 0.830336
vn 0.188797 -0.065353 0.979839
vn 0.188797 -0.065353 0.979839
vn 0.188797 -0.065353 0.979839
vn 0.188797 -0.065353 0.979839
vn 0.177343 -0.052382 0.982754
vn 0.177343 -0.052382 0.982754
vn 0.177343 -0.052382 0.982754
vn 0.177343 -0.052382 0.982754
vn 0.181880 -0.062736 0.981317
vn 0.181880 -0.062736 0.981317
vn 0.181880 -0.062736 0.981317
vn 0.181880 -0.062736 0.981317
vn 0.175297 -0.041942 0.983622
vn 0.175297 -0.041942 0.983622
vn 0.175297 -0.041942 0.983622
vn 0.175297 -0.041942 0.983622
vn 0.245283 -0.063473 0.967371
vn 0.245283 -0.063473 0.967371
vn 0.245283 -0.063473 0.967371
vn 0.245283 -0.063473 0.967371
vn 0.238400 -0.065913 0.968928
vn 0.238400 -0.065913 0.968928
vn 0.238400 -0.065913 0.968928
vn 0.238401 -0.065913 0.968928
vn 0.250229 -0.053300 0.966718
vn 0.250229 -0.053300 0.966718
vn 0.250229 -0.053300 0.966718
vn 0.250229 -0.053300 0.966718
vn 0.252758 -0.043006 0.966573
vn 0.252758 -0.043006 0.966573
vn 0.252758 -0.043006 0.966573
vn 0.252758 -0.043006 0.966573
vn 0.248905 -0.022274 0.968272
vn 0.248905 -0.022274 0.968272
vn 0.248905 -0.022274 0.968272
vn 0.248905 -0.022274 0.968272
vn 0.241390 -0.010357 0.970373
vn 0.241390 -0.010357 0.970373
vn 0.241390 -0.010357 0.970373
vn 0.241390 -0.010357 0.970373
vn 0.209656 0.019592 0.977579
vn 0.209656 0.019592 0.977579
vn 0.209656 0.019592 0.977579
vn 0.209656 0.019592 0.977579
vn 0.183162 0.035150 0.982454
vn 0.183162 0.035150 0.982454
vn 0.183162 0.035150 0.982454
vn 0.183162 0.035150 0.982454
vn 0.180171 -0.021192 0.983407
vn 0.180171 -0.021192 0.983407
vn 0.180171 -0.021192 0.983407
vn 0.180171 -0.021192 0.983407
vn 0.247469 0.033779 0.968307
vn 0.247469 0.033779 0.968307
vn 0.247469 0.033779 0.968307
vn 0.247469 0.033779 0.968307
vn 0.221125 0.019361 0.975053
vn 0.221125 0.019361 0.975053
vn 0.221125 0.019361 0.975053
vn 0.221125 0.019361 0.975053
vn 0.188312 -0.009463 0.982064
vn 0.188312 -0.009463 0.982064
vn 0.188312 -0.009463 0.982064
vn 0.188312 -0.009463 0.982064
vn 0.530416 0.842356 -0.095374
vn 0.530416 0.842355 -0.095374
vn 0.530416 0.842356 -0.095374
vn 0.530416 0.842356 -0.095374
vn 0.790242 0.591845 -0.158864
vn 0.790242 0.591845 -0.158864
vn 0.790242 0.591845 -0.158864
vn 0.790242 0.591845 -0.158864
vn 0.644285 0.754886 -0.122655
vn 0.644285 0.754886 -0.122655
vn 0.644285 0.754886 -0.122655
vn 0.644285 0.754886 -0.122655
vn 0.898199 0.397602 -0.187485
vn 0.898199 0.397602 -0.187485
vn 0.898199 0.397602 -0.187485
vn 0.898199 0.397602 -0.187485
vn -0.613633 0.774325 0.154514
vn -0.613633 0.774325 0.154514
vn -0.613633 0.774325 0.154514
vn -0.613633 0.774325 0.154514
vn -0.496341 0.858220 0.130781
vn -0.496341 0.858220 0.130781
vn -0.496341 0.858221 0.130781
vn -0.496341 0.858220 0.130781
vn -0.766043 0.615890 0.184005
vn -0.766043 0.615890 0.184005
vn -0.766043 0.615890 0.184005
vn -0.766043 0.615890 0.184005
vn -0.881707 0.425097 0.204659
vn -0.881707 0.425097 0.204659
vn -0.881707 0.425097 0.204659
vn -0.881707 0.425097 0.204659
vn -0.974914 -0.065383 0.212761
vn -0.974914 -0.065383 0.212761
vn -0.974914 -0.065383 0.212761
vn -0.974914 -0.065383 0.212761
vn -0.868800 -0.461506 0.179441
vn -0.868800 -0.461506 0.179441
vn -0.868800 -0.461506 0.179441
vn -0.868800 -0.461506 0.179441
vn 0.109055 -0.992827 -0.049007
vn 0.109055 -0.992827 -0.049007
vn 0.109055 -0.992827 -0.049007
vn 0.109055 -0.992827 -0.049007
vn 0.458238 -0.880276 -0.123011
vn 0.458238 -0.880276 -0.123011
vn 0.458238 -0.880276 -0.123011
vn 0.458238 -0.880276 -0.123011
vn 0.971690 -0.095451 -0.216120
vn 0.971690 -0.095451 -0.216120
vn 0.971690 -0.095451 -0.216120
vn 0.971690 -0.095451 -0.216120
vn -0.493222 -0.865575 0.086672
vn -0.493222 -0.865575 0.086672
vn -0.493222 -0.865575 0.086672
vn -0.493222 -0.865575 0.086672
vn -0.148752 -0.988844 0.007788
vn -0.148752 -0.988844 0.007788
vn -0.148752 -0.988844 0.007788
vn -0.148752 -0.988844 0.007788
vn 0.849775 -0.488061 -0.199197
vn 0.849775 -0.488061 -0.199197
vn 0.849775 -0.488061 -0.199197
vn 0.849775 -0.488061 -0.199197
s off
f 58/1/1 59/2/2 60/3/3 61/4/4
f 59/2/5 62/5/6 63/6/7 60/3/8
f 60/3/9 63/6/10 64/7/11 65/8/12
f 61/4/13 60/3/14 65/8/15 66/9/16
f 62/5/17 67/10/18 68/11/19 63/6/20
f 67/10/21 69/12/22 70/13/23 68/11/24
f 68/11/25 70/13/26 71/14/27 72/15/28
f 63/6/29 68/11/30 72/15/31 64/7/32
f 64/7/33 72/15/34 73/16/35 74/17/36
f 72/15/37 71/14/38 75/18/39 73/16/40
f 73/16/41 75/18/42 76/19/43 77/20/44
f 74/17/45 73/16/46 77/20/47 78/21/48
f 66/9/49 65/8/50 79/22/51 80/23/52
f 65/8/53 64/7/54 74/17/55 79/22/56
f 79/22/57 74/17/58 78/21/59 81/24/60
f 80/23/61 79/22/62 81/24/63 82/25/64
f 1/26/65 4/27/66 3/28/67 2/29/68
f 2/29/69 3/28/70 6/30/71 5/31/72
f 3/28/73 8/32/74 7/33/75 6/30/76
f 4/27/77 9/34/78 8/32/79 3/28/80
f 5/31/81 6/30/82 11/35/83 10/36/84
f 10/36/85 11/35/86 13/37/87 12/38/88
f 11/35/89 15/39/90 14/40/91 13/37/92
f 6/30/93 7/33/94 15/39/95 11/35/96
f 7/33/97 17/41/98 16/42/99 15/39/100
f 15/39/101 16/42/102 18/43/103 14/40/104
f 16/42/105 20/44/106 19/45/107 18/43/108
f 17/41/109 21/46/110 20/44/111 16/42/112
f 9/34/113 23/47/114 22/48/115 8/32/116
f 8/32/117 22/48/118 17/41/119 7/33/120
f 22/48/121 24/49/122 21/46/123 17/41/124
f 23/47/125 25/50/126 24/49/127 22/48/128
f 1/26/129 2/29/130 27/51/131 26/52/132
f 4/27/133 1/26/134 26/52/135 28/53/136
f 2/29/137 5/31/138 29/54/139 27/51/140
f 9/34/141 4/27/142 28/53/143 30/55/144
f 5/31/145 10/36/146 31/56/147 29/54/148
f 10/36/149 12/38/150 32/57/151 31/56/152
f 12/38/153 13/37/154 33/58/155 32/57/156
f 13/37/157 14/40/158 34/59/159 33/58/160
f 14/40/161 18/43/162 35/60/163 34/59/164
f 18/43/165 19/45/166 36/61/167 35/60/168
f 19/45/169 20/44/170 37/62/171 36/61/172
f 20/44/173 21/46/174 38/63/175 37/62/176
f 23/47/177 9/34/178 30/55/179 39/64/180
f 21/46/181 24/49/182 40/65/183 38/63/184
f 24/49/185 25/50/186 41/66/187 40/65/188
f 25/50/189 23/47/190 39/64/191 41/66/192
f 26/52/193 27/51/194 43/67/195 42/68/196
f 28/53/197 26/52/198 42/68/199 44/69/200
f 27/51/201 29/54/202 45/70/203 43/67/204
f 30/55/205 28/53/206 44/69/207 46/71/208
f 29/54/209 31/56/210 47/72/211 45/70/212
f 31/56/213 32/57/214 48/73/215 47/72/216
f 32/57/217 33/58/218 49/74/219 48/73/220
f 33/58/221 34/59/222 50/75/223 49/74/224
f 34/59/225 35/60/226 51/76/227 50/75/228
f 35/60/229 36/61/230 52/77/231 51/76/232
f 36/61/233 37/62/234 53/78/235 52/77/236
f 37/62/237 38/63/238 54/79/239 53/78/240
f 39/64/241 30/55/242 46/71/243 55/80/244
f 38/63/245 40/65/246 56/81/247 54/79/248
f 40/65/249 41/66/250 57/82/251 56/81/252
f 41/66/253 39/64/254 55/80/255 57/82/256
f 42/68/257 43/67/258 59/2/259 58/1/260
f 44/69/261 42/68/262 58/1/263 61/4/264
f 43/67/265 45/70/266 62/5/267 59/2/268
f 46/71/269 44/69/270 61/4/271 66/9/272
f 45/70/273 47/72/274 67/10/275 62/5/276
f 47/72/277 48/73/278 69/12/279 67/10/280
f 48/73/281 49/74/282 70/13/283 69/12/284
f 49/74/285 50/75/286 71/14/287 70/13/288
f 50/75/289 51/76/290 75/18/291 71/14/292
f 51/76/293 52/77/294 76/19/295 75/18/296
f 52/77/297 53/78/298 77/20/299 76/19/300
f 53/78/301 54/79/302 78/21/303 77/20/304
f 55/80/305 46/71/306 66/9/307 80/23/308
f 54/79/309 56/81/310 81/24/311 78/21/312
f 56/81/313 57/82/314 82/25/315 81/24/316
f 57/82/317 55/80/318 80/23/319 82/25/320
